# xmcd CD database file
#
# Track frame offsets:
#	150
#	9807
#	20902
#	33012
#	44854
#	63218
#	73171
#	88542
#	100640
#	124428
#	137333
#	148051
#	159330
#	169234
#	181041
#	189319
#	199610
#	210827
#	221340
#
# Disc length: 3095 seconds
#
# Revision: 1
# Processed by: cddbd v1.5.1PL0 Copyright (c) Steve Scherf et al.
# Submitted via: CDex 1.51
#
DISCID=fd0c1513
DTITLE=Nancy Wilson - The Best of Nancy Wilson - The Standards
DYEAR=1998
DGENRE=Blues
TTITLE0=Yesterday
TTITLE1=I'm Beginning to See the Light
TTITLE2=Changes
TTITLE3=All By Myself
TTITLE4=But Beautiful
TTITLE5=Don't Rain On My Parade
TTITLE6=Guess Who I Saw Today
TTITLE7=There Will Never Be Another You
TTITLE8=Ode to Billie Joe
TTITLE9=Go Away Little Boy
TTITLE10=(I Left My Heart) In San Francisco
TTITLE11=The Good Life
TTITLE12=What Kind of Fool Am I
TTITLE13=I Can't Stop Loving You
TTITLE14=On Broadway
TTITLE15=Our Day Will Come
TTITLE16=Call Me Irresponsible
TTITLE17=That's What I Want for Christmas
TTITLE18=What Are You Doing New Year's Eve
EXTD=YEAR: 1998
EXTT0=
EXTT1=
EXTT2=
EXTT3=
EXTT4=
EXTT5=
EXTT6=
EXTT7=
EXTT8=
EXTT9=
EXTT10=
EXTT11=
EXTT12=
EXTT13=
EXTT14=
EXTT15=
EXTT16=
EXTT17=
EXTT18=
PLAYORDER=
